<mxfile host="app.diagrams.net" modified="2021-12-02T06:54:53.266Z" agent="5.0 (Windows NT 10.0; Win64; x64) AppleWebKit/537.36 (KHTML, like Gecko) Chrome/96.0.4664.45 Safari/537.36" etag="YR61gtxkwQEG83KohxUP" version="15.8.8" type="github">
  <diagram id="FXUG7Rp8BgYKLSqA1spy" name="Page-1">
    <mxGraphModel dx="948" dy="508" grid="1" gridSize="10" guides="1" tooltips="1" connect="1" arrows="1" fold="1" page="1" pageScale="1" pageWidth="850" pageHeight="1100" math="0" shadow="1">
      <root>
        <mxCell id="0" />
        <mxCell id="1" parent="0" />
        <mxCell id="dRSRHBs3QUqfo48hZalt-33" value="" style="rounded=1;whiteSpace=wrap;html=1;fillColor=#f5f5f5;strokeColor=#666666;fontColor=#333333;" parent="1" vertex="1">
          <mxGeometry x="41.25" y="105" width="192.5" height="140" as="geometry" />
        </mxCell>
        <mxCell id="dRSRHBs3QUqfo48hZalt-19" value="" style="rounded=1;whiteSpace=wrap;html=1;fillColor=#f5f5f5;strokeColor=#666666;fontColor=#333333;" parent="1" vertex="1">
          <mxGeometry x="621.25" y="105" width="192.5" height="140" as="geometry" />
        </mxCell>
        <mxCell id="dRSRHBs3QUqfo48hZalt-9" value="" style="ellipse;shape=cloud;whiteSpace=wrap;html=1;align=center;verticalAlign=top;fillColor=#cce5ff;strokeColor=#36393d;" parent="1" vertex="1">
          <mxGeometry x="275" y="237.5" width="360" height="130" as="geometry" />
        </mxCell>
        <mxCell id="dRSRHBs3QUqfo48hZalt-1" value="" style="rounded=1;whiteSpace=wrap;html=1;fillColor=#f5f5f5;strokeColor=#666666;fontColor=#333333;" parent="1" vertex="1">
          <mxGeometry x="41.25" y="367.5" width="758.75" height="360" as="geometry" />
        </mxCell>
        <mxCell id="GN5iy7HzoKI8bPFCEEdY-2" value="" style="rounded=1;whiteSpace=wrap;html=1;fillColor=#d5e8d4;strokeColor=#82b366;" parent="1" vertex="1">
          <mxGeometry x="90" y="940" width="660" height="60" as="geometry" />
        </mxCell>
        <mxCell id="dRSRHBs3QUqfo48hZalt-16" style="edgeStyle=orthogonalEdgeStyle;rounded=0;orthogonalLoop=1;jettySize=auto;html=1;entryX=0.13;entryY=0.77;entryDx=0;entryDy=0;entryPerimeter=0;startArrow=classic;startFill=1;" parent="1" source="GN5iy7HzoKI8bPFCEEdY-3" target="dRSRHBs3QUqfo48hZalt-13" edge="1">
          <mxGeometry relative="1" as="geometry" />
        </mxCell>
        <mxCell id="GN5iy7HzoKI8bPFCEEdY-3" value="Плата подсветки" style="rounded=1;whiteSpace=wrap;html=1;fillColor=#dae8fc;strokeColor=#6c8ebf;" parent="1" vertex="1">
          <mxGeometry x="304" y="960" width="122" height="30" as="geometry" />
        </mxCell>
        <mxCell id="GN5iy7HzoKI8bPFCEEdY-4" value="Лазерный станок" style="text;html=1;strokeColor=none;fillColor=none;align=center;verticalAlign=middle;whiteSpace=wrap;rounded=0;" parent="1" vertex="1">
          <mxGeometry x="95" y="950" width="70" height="20" as="geometry" />
        </mxCell>
        <mxCell id="dRSRHBs3QUqfo48hZalt-15" style="edgeStyle=orthogonalEdgeStyle;rounded=0;orthogonalLoop=1;jettySize=auto;html=1;entryX=0.13;entryY=0.77;entryDx=0;entryDy=0;entryPerimeter=0;startArrow=classic;startFill=1;" parent="1" source="GN5iy7HzoKI8bPFCEEdY-5" target="dRSRHBs3QUqfo48hZalt-13" edge="1">
          <mxGeometry relative="1" as="geometry">
            <Array as="points">
              <mxPoint x="235" y="890" />
            </Array>
          </mxGeometry>
        </mxCell>
        <mxCell id="GN5iy7HzoKI8bPFCEEdY-5" value="Плата ..." style="rounded=1;whiteSpace=wrap;html=1;fillColor=#dae8fc;strokeColor=#6c8ebf;" parent="1" vertex="1">
          <mxGeometry x="185" y="960" width="100" height="30" as="geometry" />
        </mxCell>
        <mxCell id="dRSRHBs3QUqfo48hZalt-17" style="edgeStyle=orthogonalEdgeStyle;rounded=0;orthogonalLoop=1;jettySize=auto;html=1;startArrow=classic;startFill=1;" parent="1" source="GN5iy7HzoKI8bPFCEEdY-6" target="dRSRHBs3QUqfo48hZalt-13" edge="1">
          <mxGeometry relative="1" as="geometry" />
        </mxCell>
        <mxCell id="GN5iy7HzoKI8bPFCEEdY-6" value="Плата ..." style="rounded=1;whiteSpace=wrap;html=1;fillColor=#dae8fc;strokeColor=#6c8ebf;" parent="1" vertex="1">
          <mxGeometry x="439" y="960" width="120" height="30" as="geometry" />
        </mxCell>
        <mxCell id="dRSRHBs3QUqfo48hZalt-18" style="edgeStyle=orthogonalEdgeStyle;rounded=0;orthogonalLoop=1;jettySize=auto;html=1;entryX=0.885;entryY=0.769;entryDx=0;entryDy=0;entryPerimeter=0;startArrow=classic;startFill=1;" parent="1" source="GN5iy7HzoKI8bPFCEEdY-7" target="dRSRHBs3QUqfo48hZalt-13" edge="1">
          <mxGeometry relative="1" as="geometry" />
        </mxCell>
        <mxCell id="GN5iy7HzoKI8bPFCEEdY-7" value="Плата ..." style="rounded=1;whiteSpace=wrap;html=1;fillColor=#dae8fc;strokeColor=#6c8ebf;" parent="1" vertex="1">
          <mxGeometry x="585" y="960" width="105" height="30" as="geometry" />
        </mxCell>
        <mxCell id="GN5iy7HzoKI8bPFCEEdY-16" value="" style="rounded=1;whiteSpace=wrap;html=1;fillColor=#f5f5f5;strokeColor=#666666;fontColor=#333333;" parent="1" vertex="1">
          <mxGeometry x="276.25" y="82.5" width="315" height="135" as="geometry" />
        </mxCell>
        <mxCell id="GN5iy7HzoKI8bPFCEEdY-17" value="&lt;font face=&quot;Verdana&quot;&gt;&lt;b&gt;Компьютер (хост)&lt;/b&gt;&lt;/font&gt;" style="text;html=1;strokeColor=none;fillColor=none;align=center;verticalAlign=middle;whiteSpace=wrap;rounded=0;" parent="1" vertex="1">
          <mxGeometry x="353.75" y="70" width="160" height="50" as="geometry" />
        </mxCell>
        <mxCell id="GN5iy7HzoKI8bPFCEEdY-19" value="&lt;div style=&quot;font-size: 16px&quot;&gt;Схема модулей LaserSTUDIO2 v2.0&lt;/div&gt;" style="text;html=1;strokeColor=none;fillColor=none;align=center;verticalAlign=middle;whiteSpace=wrap;rounded=0;fontStyle=1" parent="1" vertex="1">
          <mxGeometry x="195" y="30" width="460" height="20" as="geometry" />
        </mxCell>
        <mxCell id="GN5iy7HzoKI8bPFCEEdY-21" value="&lt;u&gt;Marathon:&lt;/u&gt; chai 2.11&lt;br&gt;(only windows)" style="rounded=0;whiteSpace=wrap;html=1;fillColor=#fad9d5;strokeColor=#ae4132;" parent="1" vertex="1">
          <mxGeometry x="465.25" y="697.5" width="120" height="30" as="geometry" />
        </mxCell>
        <mxCell id="GN5iy7HzoKI8bPFCEEdY-22" value="SocketCAN&lt;br&gt;Native: network interfice&lt;br&gt;(only linux)&lt;br&gt;" style="rounded=0;whiteSpace=wrap;html=1;fillColor=#fad9d5;strokeColor=#ae4132;" parent="1" vertex="1">
          <mxGeometry x="321.25" y="677.5" width="140" height="50" as="geometry" />
        </mxCell>
        <mxCell id="GN5iy7HzoKI8bPFCEEdY-24" value="&lt;u&gt;Ixxat&lt;/u&gt;: simplyCAN" style="rounded=0;whiteSpace=wrap;html=1;fillColor=#fad9d5;strokeColor=#ae4132;" parent="1" vertex="1">
          <mxGeometry x="616.25" y="697.5" width="120" height="30" as="geometry" />
        </mxCell>
        <mxCell id="GN5iy7HzoKI8bPFCEEdY-26" value="SocketCAN&lt;br&gt;SLCAN interfaces" style="rounded=0;whiteSpace=wrap;html=1;fillColor=#fad9d5;strokeColor=#ae4132;" parent="1" vertex="1">
          <mxGeometry x="196.25" y="697.5" width="120" height="30" as="geometry" />
        </mxCell>
        <mxCell id="GN5iy7HzoKI8bPFCEEdY-31" value="&lt;p style=&quot;font-size: 8px&quot;&gt;&lt;font style=&quot;font-size: 8px&quot; face=&quot;Verdana&quot;&gt;Marathon USB&lt;/font&gt;&lt;/p&gt;" style="rounded=0;whiteSpace=wrap;html=1;fillColor=#bac8d3;strokeColor=#23445d;" parent="1" vertex="1">
          <mxGeometry x="543.75" y="727.5" width="60" height="30" as="geometry" />
        </mxCell>
        <mxCell id="GN5iy7HzoKI8bPFCEEdY-34" value="&lt;p style=&quot;font-size: 8px&quot;&gt;simplyCAN&lt;br&gt;USB&lt;br&gt;&lt;/p&gt;" style="rounded=0;whiteSpace=wrap;html=1;fillColor=#bac8d3;strokeColor=#23445d;" parent="1" vertex="1">
          <mxGeometry x="616.25" y="727.5" width="120" height="30" as="geometry" />
        </mxCell>
        <mxCell id="GN5iy7HzoKI8bPFCEEdY-35" value="&lt;p style=&quot;font-size: 8px&quot;&gt;&lt;font style=&quot;font-size: 8px&quot; face=&quot;Verdana&quot;&gt;Marathon PCIe&lt;/font&gt;&lt;/p&gt;" style="rounded=0;whiteSpace=wrap;html=1;fillColor=#bac8d3;strokeColor=#23445d;" parent="1" vertex="1">
          <mxGeometry x="432.25" y="727.5" width="80" height="30" as="geometry" />
        </mxCell>
        <mxCell id="dRSRHBs3QUqfo48hZalt-8" value="simplyCAN.dll" style="edgeStyle=orthogonalEdgeStyle;rounded=0;orthogonalLoop=1;jettySize=auto;html=1;" parent="1" source="GN5iy7HzoKI8bPFCEEdY-27" target="GN5iy7HzoKI8bPFCEEdY-24" edge="1">
          <mxGeometry relative="1" as="geometry" />
        </mxCell>
        <mxCell id="GN5iy7HzoKI8bPFCEEdY-39" value="&lt;div&gt;&lt;span style=&quot;color: #800080&quot;&gt;Qt: &lt;/span&gt;&lt;code&gt;socketcan&lt;/code&gt;&lt;/div&gt;" style="endArrow=classic;startArrow=classic;html=1;exitX=0.5;exitY=0;exitDx=0;exitDy=0;" parent="1" source="GN5iy7HzoKI8bPFCEEdY-22" target="dRSRHBs3QUqfo48hZalt-7" edge="1">
          <mxGeometry width="50" height="50" relative="1" as="geometry">
            <mxPoint x="340.25" y="597.5" as="sourcePoint" />
            <mxPoint x="390.25" y="547.5" as="targetPoint" />
          </mxGeometry>
        </mxCell>
        <mxCell id="GN5iy7HzoKI8bPFCEEdY-40" value="PEAK-System" style="rounded=0;whiteSpace=wrap;html=1;fillColor=#fad9d5;strokeColor=#ae4132;" parent="1" vertex="1">
          <mxGeometry x="103.75" y="697.5" width="85" height="30" as="geometry" />
        </mxCell>
        <mxCell id="GN5iy7HzoKI8bPFCEEdY-41" value="chai.dll" style="endArrow=classic;startArrow=classic;html=1;" parent="1" source="GN5iy7HzoKI8bPFCEEdY-21" target="GN5iy7HzoKI8bPFCEEdY-25" edge="1">
          <mxGeometry width="50" height="50" relative="1" as="geometry">
            <mxPoint x="550.25" y="602.5" as="sourcePoint" />
            <mxPoint x="410.25" y="587.5" as="targetPoint" />
          </mxGeometry>
        </mxCell>
        <mxCell id="GN5iy7HzoKI8bPFCEEdY-45" value="&lt;div&gt;&lt;span style=&quot;color: #800080&quot;&gt;Qt: &lt;/span&gt;&lt;code&gt;peakcan&lt;/code&gt;&lt;code&gt;&lt;/code&gt;&lt;/div&gt;" style="endArrow=classic;startArrow=classic;html=1;entryX=0;entryY=1;entryDx=0;entryDy=0;" parent="1" source="GN5iy7HzoKI8bPFCEEdY-40" target="GN5iy7HzoKI8bPFCEEdY-37" edge="1">
          <mxGeometry width="50" height="50" relative="1" as="geometry">
            <mxPoint x="190.25" y="557.14" as="sourcePoint" />
            <mxPoint x="124.28999999999996" y="517.5" as="targetPoint" />
          </mxGeometry>
        </mxCell>
        <mxCell id="GN5iy7HzoKI8bPFCEEdY-47" value="LaserSTUDIO2&lt;br&gt;(QML/JavaScript)" style="rounded=1;whiteSpace=wrap;html=1;fillColor=#dae8fc;gradientColor=#7ea6e0;strokeColor=#6c8ebf;verticalAlign=top;align=left;" parent="1" vertex="1">
          <mxGeometry x="303.75" y="127.5" width="260" height="90" as="geometry" />
        </mxCell>
        <mxCell id="GN5iy7HzoKI8bPFCEEdY-55" value="Другое GUI &lt;br&gt;на любом языке программирования" style="rounded=1;whiteSpace=wrap;html=1;fillColor=#dae8fc;gradientColor=#7ea6e0;strokeColor=#6c8ebf;verticalAlign=top;" parent="1" vertex="1">
          <mxGeometry x="641.25" y="145" width="157.5" height="100" as="geometry" />
        </mxCell>
        <mxCell id="GN5iy7HzoKI8bPFCEEdY-56" value="WebSocket" style="rounded=1;whiteSpace=wrap;html=1;fillColor=#fff2cc;strokeColor=#d6b656;" parent="1" vertex="1">
          <mxGeometry x="327.25" y="197.5" width="74" height="20" as="geometry" />
        </mxCell>
        <mxCell id="GN5iy7HzoKI8bPFCEEdY-60" value="&amp;nbsp; &amp;nbsp; CanServer&lt;br&gt;&amp;nbsp; &amp;nbsp; &amp;nbsp;(Qt/C++)" style="rounded=1;whiteSpace=wrap;html=1;fillColor=#d5e8d4;strokeColor=#82b366;gradientColor=#97d077;align=left;horizontal=1;verticalAlign=top;fontStyle=1" parent="1" vertex="1">
          <mxGeometry x="276.25" y="370" width="490" height="192.5" as="geometry" />
        </mxCell>
        <mxCell id="GN5iy7HzoKI8bPFCEEdY-61" value="JSON" style="endArrow=classic;startArrow=classic;html=1;" parent="1" source="dRSRHBs3QUqfo48hZalt-6" target="GN5iy7HzoKI8bPFCEEdY-58" edge="1">
          <mxGeometry width="50" height="50" relative="1" as="geometry">
            <mxPoint x="445.25" y="117.5" as="sourcePoint" />
            <mxPoint x="532.75" y="477.5" as="targetPoint" />
          </mxGeometry>
        </mxCell>
        <mxCell id="GN5iy7HzoKI8bPFCEEdY-62" value="JSON" style="endArrow=classic;startArrow=classic;html=1;entryX=0.5;entryY=1;entryDx=0;entryDy=0;" parent="1" source="dRSRHBs3QUqfo48hZalt-4" target="GN5iy7HzoKI8bPFCEEdY-55" edge="1">
          <mxGeometry width="50" height="50" relative="1" as="geometry">
            <mxPoint x="700" y="440" as="sourcePoint" />
            <mxPoint x="678.8" y="249.65999999999997" as="targetPoint" />
          </mxGeometry>
        </mxCell>
        <mxCell id="dRSRHBs3QUqfo48hZalt-2" value="&lt;font face=&quot;Verdana&quot;&gt;&lt;b&gt;Компьютер (сервер)&lt;/b&gt;&lt;/font&gt;" style="text;html=1;strokeColor=none;fillColor=none;align=center;verticalAlign=middle;whiteSpace=wrap;rounded=0;" parent="1" vertex="1">
          <mxGeometry x="66.25" y="382.5" width="160" height="50" as="geometry" />
        </mxCell>
        <mxCell id="dRSRHBs3QUqfo48hZalt-4" value="WebSocketServer" style="rounded=1;whiteSpace=wrap;html=1;fillColor=#fff2cc;strokeColor=#d6b656;align=center;verticalAlign=top;" parent="1" vertex="1">
          <mxGeometry x="390.75" y="367.5" width="170" height="55" as="geometry" />
        </mxCell>
        <mxCell id="dRSRHBs3QUqfo48hZalt-5" value="WebSocket" style="rounded=1;whiteSpace=wrap;html=1;fillColor=#fff2cc;strokeColor=#d6b656;" parent="1" vertex="1">
          <mxGeometry x="675" y="225" width="90" height="20" as="geometry" />
        </mxCell>
        <mxCell id="GN5iy7HzoKI8bPFCEEdY-58" value="Qt/С++ signal-slot" style="rounded=1;whiteSpace=wrap;html=1;" parent="1" vertex="1">
          <mxGeometry x="417.75" y="402.5" width="116" height="20" as="geometry" />
        </mxCell>
        <mxCell id="GN5iy7HzoKI8bPFCEEdY-53" value="JSON" style="endArrow=classic;startArrow=classic;html=1;exitX=0.36;exitY=0.033;exitDx=0;exitDy=0;exitPerimeter=0;" parent="1" source="dRSRHBs3QUqfo48hZalt-4" target="GN5iy7HzoKI8bPFCEEdY-56" edge="1">
          <mxGeometry width="50" height="50" relative="1" as="geometry">
            <mxPoint x="470" y="395" as="sourcePoint" />
            <mxPoint x="270" y="320" as="targetPoint" />
          </mxGeometry>
        </mxCell>
        <mxCell id="dRSRHBs3QUqfo48hZalt-11" value="Локальная сеть" style="text;html=1;strokeColor=none;fillColor=none;align=center;verticalAlign=middle;whiteSpace=wrap;rounded=0;fontStyle=1" parent="1" vertex="1">
          <mxGeometry x="419.5" y="257.5" width="71" height="30" as="geometry" />
        </mxCell>
        <mxCell id="dRSRHBs3QUqfo48hZalt-13" value="сеть&lt;br style=&quot;font-size: 12px;&quot;&gt;CAN" style="ellipse;shape=cloud;whiteSpace=wrap;html=1;align=center;verticalAlign=middle;fillColor=#cce5ff;strokeColor=#36393d;fontStyle=1;fontSize=12;" parent="1" vertex="1">
          <mxGeometry x="319" y="790" width="360" height="130" as="geometry" />
        </mxCell>
        <mxCell id="GN5iy7HzoKI8bPFCEEdY-43" value="frame" style="endArrow=classic;startArrow=classic;html=1;entryX=0.5;entryY=1;entryDx=0;entryDy=0;exitX=0.4;exitY=0.1;exitDx=0;exitDy=0;exitPerimeter=0;" parent="1" source="dRSRHBs3QUqfo48hZalt-13" target="GN5iy7HzoKI8bPFCEEdY-35" edge="1">
          <mxGeometry width="50" height="50" relative="1" as="geometry">
            <mxPoint x="390" y="830" as="sourcePoint" />
            <mxPoint x="390" y="510" as="targetPoint" />
          </mxGeometry>
        </mxCell>
        <mxCell id="GN5iy7HzoKI8bPFCEEdY-44" value="frame" style="endArrow=classic;startArrow=classic;html=1;entryX=0.5;entryY=1;entryDx=0;entryDy=0;exitX=0.625;exitY=0.2;exitDx=0;exitDy=0;exitPerimeter=0;" parent="1" source="dRSRHBs3QUqfo48hZalt-13" target="GN5iy7HzoKI8bPFCEEdY-31" edge="1">
          <mxGeometry width="50" height="50" relative="1" as="geometry">
            <mxPoint x="439.38199999999983" y="590.3299999999999" as="sourcePoint" />
            <mxPoint x="470" y="500" as="targetPoint" />
          </mxGeometry>
        </mxCell>
        <mxCell id="GN5iy7HzoKI8bPFCEEdY-66" value="frame" style="endArrow=classic;startArrow=classic;html=1;exitX=0.88;exitY=0.25;exitDx=0;exitDy=0;exitPerimeter=0;" parent="1" source="dRSRHBs3QUqfo48hZalt-13" target="GN5iy7HzoKI8bPFCEEdY-34" edge="1">
          <mxGeometry width="50" height="50" relative="1" as="geometry">
            <mxPoint x="455.36400000000003" y="680.99" as="sourcePoint" />
            <mxPoint x="700" y="560" as="targetPoint" />
          </mxGeometry>
        </mxCell>
        <mxCell id="dRSRHBs3QUqfo48hZalt-20" value="другой компьютер (планшет, смартфон)" style="text;html=1;strokeColor=none;fillColor=none;align=center;verticalAlign=middle;whiteSpace=wrap;rounded=0;" parent="1" vertex="1">
          <mxGeometry x="632.5" y="100" width="160" height="50" as="geometry" />
        </mxCell>
        <mxCell id="dRSRHBs3QUqfo48hZalt-22" value="Geometry.dll&lt;br&gt;(Qt/C++)" style="rounded=1;whiteSpace=wrap;html=1;fillColor=#647687;strokeColor=#314354;verticalAlign=top;align=left;fontColor=#ffffff;" parent="1" vertex="1">
          <mxGeometry x="433.75" y="167.5" width="130" height="50" as="geometry" />
        </mxCell>
        <mxCell id="dRSRHBs3QUqfo48hZalt-23" value="WebSocket" style="rounded=1;whiteSpace=wrap;html=1;fillColor=#fff2cc;strokeColor=#d6b656;" parent="1" vertex="1">
          <mxGeometry x="484.25" y="197.5" width="74" height="20" as="geometry" />
        </mxCell>
        <mxCell id="dRSRHBs3QUqfo48hZalt-24" value="JSON" style="endArrow=classic;startArrow=classic;html=1;" parent="1" target="dRSRHBs3QUqfo48hZalt-23" edge="1">
          <mxGeometry width="50" height="50" relative="1" as="geometry">
            <mxPoint x="480" y="370" as="sourcePoint" />
            <mxPoint x="337.50391322257315" y="240" as="targetPoint" />
          </mxGeometry>
        </mxCell>
        <mxCell id="dRSRHBs3QUqfo48hZalt-30" value="Другое GUI &lt;br&gt;на любом языке программирования" style="rounded=1;whiteSpace=wrap;html=1;fillColor=#dae8fc;gradientColor=#7ea6e0;strokeColor=#6c8ebf;verticalAlign=top;" parent="1" vertex="1">
          <mxGeometry x="58.75" y="145" width="157.5" height="100" as="geometry" />
        </mxCell>
        <mxCell id="dRSRHBs3QUqfo48hZalt-31" value="WebSocket" style="rounded=1;whiteSpace=wrap;html=1;fillColor=#fff2cc;strokeColor=#d6b656;" parent="1" vertex="1">
          <mxGeometry x="92.5" y="225" width="90" height="20" as="geometry" />
        </mxCell>
        <mxCell id="dRSRHBs3QUqfo48hZalt-32" value="другой компьютер (планшет, смартфон)" style="text;html=1;strokeColor=none;fillColor=none;align=center;verticalAlign=middle;whiteSpace=wrap;rounded=0;" parent="1" vertex="1">
          <mxGeometry x="50" y="100" width="160" height="50" as="geometry" />
        </mxCell>
        <mxCell id="dRSRHBs3QUqfo48hZalt-34" value="JSON" style="endArrow=classic;startArrow=classic;html=1;exitX=0.067;exitY=0;exitDx=0;exitDy=0;exitPerimeter=0;" parent="1" source="dRSRHBs3QUqfo48hZalt-4" target="dRSRHBs3QUqfo48hZalt-31" edge="1">
          <mxGeometry width="50" height="50" relative="1" as="geometry">
            <mxPoint x="518.8829787234042" y="375" as="sourcePoint" />
            <mxPoint x="748.75" y="267.5" as="targetPoint" />
          </mxGeometry>
        </mxCell>
        <mxCell id="GN5iy7HzoKI8bPFCEEdY-37" value="&lt;div&gt;DeviceCAN.dll&lt;/div&gt;&lt;div&gt;(Qt/C++)&lt;/div&gt;" style="rounded=1;whiteSpace=wrap;html=1;fillColor=#647687;strokeColor=#314354;fontColor=#ffffff;verticalAlign=top;align=left;" parent="1" vertex="1">
          <mxGeometry x="291.25" y="502.5" width="460" height="60" as="geometry" />
        </mxCell>
        <mxCell id="dRSRHBs3QUqfo48hZalt-6" value="Qt/С++ signal-slot" style="rounded=1;whiteSpace=wrap;html=1;" parent="1" vertex="1">
          <mxGeometry x="413.75" y="502.5" width="124" height="20" as="geometry" />
        </mxCell>
        <mxCell id="GN5iy7HzoKI8bPFCEEdY-27" value="simplyCAN" style="rounded=0;whiteSpace=wrap;html=1;fillColor=#b1ddf0;strokeColor=#10739e;" parent="1" vertex="1">
          <mxGeometry x="621.25" y="547.5" width="110" height="15" as="geometry" />
        </mxCell>
        <mxCell id="GN5iy7HzoKI8bPFCEEdY-25" value="MarathonCAN" style="rounded=0;whiteSpace=wrap;html=1;fillColor=#b1ddf0;strokeColor=#10739e;" parent="1" vertex="1">
          <mxGeometry x="472.75" y="547.5" width="105" height="15" as="geometry" />
        </mxCell>
        <mxCell id="dRSRHBs3QUqfo48hZalt-7" value="SocketCAN" style="rounded=0;whiteSpace=wrap;html=1;fillColor=#b1ddf0;strokeColor=#10739e;" parent="1" vertex="1">
          <mxGeometry x="341.25" y="547.5" width="100" height="15" as="geometry" />
        </mxCell>
      </root>
    </mxGraphModel>
  </diagram>
</mxfile>
